Patient4_TMGait_0pt7_02_left_38_EMG.mot
version=1
nRows=27
nColumns=33
inDegrees=no
endheader
time	1LAddLong	2LGlutMax	3LGlutMed	4LIliopsoas	5LSemiMemb	6LBicFemLong	7LRecFem	8LVastMed	9LVastLat	10LGasMed	11LTibAnt	12lTibPost	13LPeroneusLong	14LSol	15LExtDigLong	16LFlexDigLong	17RAddLong	18RGlutMax	19RGlutMed	20RIliopsoas	21RSemiMemb	22RBicFemLong	23RRecFem	24RVastMed	25RVastLat	26RGasMed	27RTibAnt	28RTibPost	29RPeroneusLong	30RSol	31RExtDigLong	32RFlexDigLong
44.285	-0.001831	-0.49759	-0.056458	-0.00412	-0.013733	-0.04425	0.53024	-0.00061	0.011597	-0.39124	-0.046692	0.001526	0.045471	-0.4361	0.40253	0.1564	0.000305	-0.13214	0.09903	0.020142	0.35553	0.0383	0.49286	0.77682	0.062408	-0.002441	0.73471	0.008392	0.002899	-0.066223	-0.000916	-0.016785
44.286	0.001984	-0.49225	-0.032654	-0.008698	-0.004425	0.052948	0.52292	-0.000458	-0.004883	-0.215	-0.049591	0.005646	0.055542	-0.38544	0.61859	-0.086365	-0.007477	-0.076294	0.086212	-0.020447	0.43259	0.001831	0.46707	0.60104	-0.011597	-0.005035	0.73486	0.005188	0.03067	-0.063171	0.000153	-0.012512
44.287	-0.005798	-0.4747	-0.031891	-0.004578	-0.013123	0.159	0.49881	-0.00412	-0.020294	-0.15961	0.048828	0.013123	0.038605	-0.44525	-0.096588	-0.50003	0.033417	-0.004578	0.12695	-0.095062	0.4628	0.032043	0.33798	0.43396	-0.16449	-0.008698	0.63431	0.006714	-0.16083	-0.033569	-0.005951	-0.007172
44.288	-0.007019	-0.49942	-0.055847	-0.006104	0.011292	0.12329	0.4686	0.003204	-0.02533	-0.035553	0.067596	0.000458	0.049591	-0.33981	-0.51926	-0.09903	0.018005	0.034943	0.019073	-0.18326	0.45471	-0.094299	0.23483	0.089569	0.12421	0.005951	-0.54794	0.000916	-0.28717	0.023651	0.001373	-0.002747
44.289	-0.022278	-0.4776	-0.043945	0.023651	0.023193	-0.001984	0.48523	0.00824	-0.038605	0.097961	0.032043	-0.00061	0.085144	-0.14404	-0.33402	0.013428	0.038147	0.037842	-0.071106	-0.25177	0.40375	-0.2739	0.002136	-0.2095	0.69427	0.002594	-1.169	-0.00946	-0.43076	0.071716	0.001373	-0.012207
44.29	-0.022278	-0.48981	-0.05188	0.007324	0.035553	-0.098572	0.42404	0.015869	-0.07019	0.15671	0.001221	0.016785	0.067596	-0.012665	-0.26443	-0.29984	0.017853	0.11047	-0.10117	-0.29877	0.34134	-0.33905	-0.54123	-0.2124	0.79346	-0.013885	-0.66483	-0.011597	0.1004	0.019226	0.003357	-0.005951
44.291	-0.017242	-0.47958	-0.054169	-0.006561	-0.001373	-0.06546	0.35996	0.007935	-0.078125	0.22263	0.009155	-0.001068	0.057068	-0.052185	-0.1651	0.12482	0.037231	0.20935	-0.10239	-0.29327	0.26504	-0.38528	-0.88959	-0.32074	0.47989	-0.030823	-0.4155	-0.011597	0.2034	0.056763	-0.003052	-0.00946
44.292	-0.017548	-0.44449	-0.062103	-0.006714	0.008698	0.010529	0.29129	0.0177	-0.06134	0.18845	0.041351	-0.012207	-0.002289	0.010986	-0.0737	0.13641	0.065613	0.21606	0.2298	-0.16937	0.42862	-0.49057	-0.72693	-0.5304	-0.14938	-0.04425	-0.34821	-0.005493	0.67566	0.058289	0.003662	0
44.293	-0.015106	-0.4483	-0.078888	0.001373	0.045166	0.087891	0.25253	0.007172	-0.019836	0.090332	0.020447	0.003815	-0.026703	0.10574	-0.045319	-0.11948	0.023651	0.17624	0.56152	0.011292	0.50629	-0.32989	-0.43137	-0.72586	-0.44083	-0.04425	-0.2507	-0.010223	0.2298	0.045624	0.00351	-0.009918
44.294	-0.014343	-0.44098	-0.068359	0.003662	0.044556	0.27115	0.1799	-0.008087	0.055237	-0.001526	-0.05127	0.005035	-0.015106	0.15335	-0.015869	-0.22492	-0.067444	0.14389	0.45487	0.16068	0.82047	-0.19684	-0.41596	-0.32684	-0.47333	-0.046997	-0.16419	-0.006256	-0.18265	0.13306	0.006561	-0.00946
44.295	-0.012512	-0.40161	-0.047455	0.009155	-0.002899	0.42419	0.19608	-0.009308	0.015259	-0.06485	-0.051117	0.001678	0.007477	0.10834	0.042877	0.25543	-0.10162	0.068512	0.29724	0.30197	0.93689	-0.11246	-0.33325	-0.47409	-0.67963	-0.000458	-0.088501	0.001068	-0.33035	0.24857	0.001221	-0.012817
44.296	0.052948	-0.35233	-0.063324	0.002136	-0.062561	0.53131	0.224	-0.002899	0.010529	-0.11765	-0.070648	-0.006256	0.005341	0.24826	0.13748	-0.11505	-0.020599	0.092621	0.77988	0.21362	0.82809	-0.050812	-0.16876	-0.50369	-0.67841	0.032959	-0.006409	-0.016174	-0.005646	0.17395	-0.002289	-0.001068
44.297	0.009613	-0.31982	-0.049286	-0.004578	-0.16052	0.35431	0.14832	-0.000916	0.062561	-0.090027	-0.068359	0.001678	-0.048065	-0.006866	0.12604	-0.14984	0.017853	0.17777	0.84946	0.17975	0.60059	0.22736	-0.084991	-0.35385	-0.45441	0.034485	0.12024	-0.025787	-0.12894	-0.024261	0.001678	-0.018921
44.298	0.068817	-0.27863	-0.051727	-0.002441	-0.15915	0.11276	0.04425	-0.006409	0.084839	0.001373	-0.089264	-0.001068	-0.14145	-0.12375	-0.00412	0.2562	0.03006	0.26688	1.2094	0.19562	0.40787	0.21378	0.056305	-0.097656	-0.050049	0.037079	0.099487	-0.000305	-0.085754	-0.028687	-0.001221	-0.011597
44.299	0.034332	-0.31357	-0.030212	0.004883	-0.10422	-0.28229	0.022736	-0.027008	0.081177	0.063934	-0.092316	-0.010986	-0.13886	0.019073	0.07019	-0.25162	0.00824	0.16632	1.1116	0.19165	0.53558	0.19211	0.1709	0.42557	0.064545	0.016785	-0.031433	0.008087	-0.028076	-0.026245	0.002594	-0.013275
44.3	0.068359	-0.28427	-0.020599	0.013428	0.022736	-0.59906	0.036316	-0.023651	0.052795	0.019226	0.090027	-0.008392	-0.089722	0.052185	0.21423	-0.19699	-0.018616	0.16281	0.86838	0.090942	0.52811	0.21637	0.10651	0.60562	-0.029297	-0.00946	-0.024109	-0.002899	0.057068	-0.004272	-0.001373	-0.011749
44.301	0.035248	-0.29511	-0.018616	-0.012207	0.1033	-0.62225	0.080414	-0.00824	-0.011292	-0.088348	0.18051	-0.004425	-0.065613	-0.17212	0.37949	-0.12375	-0.065765	0.15686	0.70129	-0.053711	0.61829	0.26337	-0.18021	0.6044	0.068359	-0.004883	0.14053	-0.005798	-0.061493	-0.000763	-0.001068	-0.012207
44.302	0.044098	-0.28458	-0.024567	0.004425	0.12726	-0.49942	0.094452	-0.001221	-0.043182	-0.10162	0.17105	0.006714	-0.000916	-0.36118	0.006256	0.27313	-0.10971	0.11612	0.98755	-0.065765	0.98633	0.4068	-0.1918	0.3978	0.44739	-0.004883	0.26825	-0.000763	-0.13687	-0.011292	-0.002441	-0.010834
44.303	0.026093	-0.2594	0.01709	0.001221	0.13123	-0.21866	0.098724	0.018921	-0.067902	-0.020294	0.053101	0.005646	0.080566	-0.26489	-0.042725	0.19073	-0.017242	0.14297	1.0306	-0.10315	1.1652	0.47913	0.020752	-0.027771	0.62256	-0.018768	0.53833	0.001373	-0.19928	-0.010071	-0.002594	-0.011139
44.304	0.01236	-0.27161	0.066071	-0.021362	0.10849	0.094604	0.10696	0.019684	-0.081177	-0.036621	0.025635	-0.001984	0.13931	-0.12405	-0.10208	-0.068512	0.058746	0.12421	0.9343	-0.085297	1.0794	0.49957	0.064697	-0.40817	0.5896	-0.003357	0.46951	0.007477	-0.05661	-0.016785	-0.001526	0.000153
44.305	0.011292	-0.26916	0.082245	-0.012054	0.076752	0.26932	0.085602	0.015259	-0.079956	0.24963	0.1178	-0.004883	0.087891	-0.054321	-0.03067	-0.20462	0.066223	0.090637	0.36026	-0.24857	1.1728	0.39139	0.031128	-0.71411	0.4483	0.006561	0.19501	0.002289	0.11719	-0.059662	0.001221	0.002899
44.306	-0.005035	-0.31326	0.018311	-0.003357	0.053406	0.20996	0.012054	0.000153	-0.055542	0.19882	0.23224	0.014648	-0.01297	0.10788	0.15106	0.46661	0.022583	-0.052185	0.21744	-0.41565	1.5071	0.23819	-0.15808	-0.77988	0.25146	0.002441	0.059814	0.005035	-0.01358	-0.048065	-0.002899	-0.003357
44.307	0.00885	-0.33203	-0.024414	-0.000763	0.079803	0.073242	-0.005341	0.011139	-0.05188	0.014954	0.28748	0.031433	-0.02655	0.39017	0.30304	0.007019	0.087738	-0.13702	0.04303	-0.41061	1.1765	0.1033	-0.086365	-1.087	0.008545	-0.011444	-0.27374	0.000458	-0.35446	-0.064087	0.002136	0.001068
44.308	0.018158	-0.36087	0.038452	0.007629	0.064392	0.046539	-0.053406	0.000916	-0.051422	-0.004578	0.034027	0.028076	-0.093689	0.18997	-0.016785	0.12238	0.078888	-0.36041	-0.17624	-0.28244	0.80368	0.28534	0.18219	-0.97259	-0.23834	-0.008392	-0.59219	-0.001831	-0.12573	-0.071869	0.004272	-0.003357
44.309	0.007324	-0.39459	0.014496	0.018005	-0.011444	0.1033	-0.085602	0.006714	-0.04837	-0.005646	-0.12253	0.011444	-0.10956	-0.097046	-0.075989	-0.051727	0.026398	-0.38284	-0.088043	-0.036011	0.57465	0.39154	0.271	-0.7312	-0.44922	-0.00412	-0.32959	0.002747	-0.11566	-0.16037	0.00351	-0.010986
44.31	-0.00412	-0.41946	-0.007782	-0.003204	-0.04364	0.098114	-0.10223	-0.00351	-0.053253	0.067749	-0.12787	0.006256	-0.07309	-0.089264	0.06546	-0.10574	-0.055084	-0.28763	-0.1358	0.28641	0.58472	0.40085	0.29724	-0.37537	-0.4863	0.006409	-0.24704	0.003052	0.33875	-0.23056	-0.00061	0.001984
44.311	-0.001831	-0.42114	0.13565	-0.041199	-0.032349	0.10529	-0.12161	0.002747	-0.061188	0.12405	-0.033722	0.007935	-0.021667	0.2063	-0.058136	0.16159	-0.034485	-0.26291	0.08194	0.42618	0.91553	0.62073	0.16571	-0.28915	-0.013123	0.021973	-0.44998	0.005798	0.48828	-0.33218	0.001373	0.001678
